<svg width="26" height="29" viewBox="0 0 26 29" fill="none" xmlns="http://www.w3.org/2000/svg">
<path d="M9.8697 5.95985C9.8697 7.79073 9.8697 9.62695 9.88038 11.4578C9.88038 13.0378 9.36794 14.5751 7.90003 15.3865C6.18658 16.326 3.75252 16.0858 1.84157 15.8883C1.76684 15.8883 1.70278 15.8722 1.63339 15.8669C1.69745 14.5485 1.67076 13.214 1.6067 11.9009C1.52664 10.118 2.60488 7.99357 4.52117 7.69465C6.5976 7.36904 8.40713 7.14485 9.3893 5.99721C9.42132 5.96518 9.45335 5.92782 9.48004 5.89045C9.62416 5.69295 9.77896 5.50613 9.93376 5.31396C9.88572 5.52214 9.8697 5.74099 9.8697 5.95451V5.95985Z" fill="white"/>
<path d="M3.58944 27.829C5.01999 27.9198 6.46121 27.8984 7.89176 27.9251C9.5625 27.9518 11.276 28.16 12.888 27.8664C15.2046 27.4447 17.8095 25.9341 18.6689 23.6975C19.4642 21.6264 19.0906 19.155 17.7187 17.4149C17.6227 17.2974 17.5212 17.18 17.4092 17.0626C16.0213 15.5466 13.8702 14.7513 11.8204 15.0235C9.27426 15.3598 7.03236 17.3615 6.37047 19.8436C5.95945 21.3916 6.31709 23.0356 6.07688 24.6103C5.87938 25.9127 4.76377 27.2472 3.58411 27.829H3.58944Z" fill="white"/>
<path d="M17.8989 0.0507812C17.7708 0.440445 17.9256 0.862135 18.091 1.23579C20.2155 5.97046 25.9057 9.17317 25.7082 14.8633C25.6174 17.4362 24.3363 20.4574 22.1852 21.984C22.0304 22.0961 21.8862 22.1922 21.7048 22.2456C21.2937 21.4769 21.251 20.356 20.9041 19.5126C20.4664 18.4504 19.8899 17.4095 19.0839 16.5875C18.3099 15.8028 17.3437 15.3491 16.5697 14.5804C14.947 12.9577 13.9222 10.7372 13.7887 8.44189C13.5966 5.17512 15.2299 1.92971 17.9042 0.061457L17.8989 0.0507812Z" fill="white"/>
<path d="M3.12454 11.474C3.12454 11.474 3.04981 10.0488 4.51239 10.1182C4.51239 10.1182 5.04617 11.6768 3.12454 11.474Z" fill="#240053" stroke="white" stroke-width="0.261407" stroke-miterlimit="10"/>
<path d="M2.63872 23.5587C3.97712 23.5587 5.0621 22.4737 5.0621 21.1353C5.0621 19.7969 3.97712 18.7119 2.63872 18.7119C1.30032 18.7119 0.215332 19.7969 0.215332 21.1353C0.215332 22.4737 1.30032 23.5587 2.63872 23.5587Z" fill="white"/>
</svg>
