<svg width="86" height="29" viewBox="0 0 86 29" fill="none" xmlns="http://www.w3.org/2000/svg">
<g clip-path="url(#clip0_0_786)">
<path d="M9.8697 5.95985C9.8697 7.79073 9.8697 9.62695 9.88038 11.4578C9.88038 13.0378 9.36794 14.5751 7.90003 15.3865C6.18658 16.326 3.75252 16.0858 1.84157 15.8883C1.76684 15.8883 1.70278 15.8722 1.63339 15.8669C1.69745 14.5485 1.67076 13.214 1.6067 11.9009C1.52664 10.118 2.60488 7.99357 4.52117 7.69465C6.5976 7.36904 8.40713 7.14485 9.3893 5.99721C9.42132 5.96518 9.45335 5.92782 9.48004 5.89045C9.62416 5.69295 9.77896 5.50613 9.93376 5.31396C9.88572 5.52214 9.8697 5.74099 9.8697 5.95451V5.95985Z" fill="white"/>
<path d="M3.58944 27.829C5.01999 27.9198 6.46121 27.8984 7.89176 27.9251C9.5625 27.9518 11.276 28.16 12.888 27.8664C15.2046 27.4447 17.8095 25.9341 18.6689 23.6975C19.4642 21.6264 19.0906 19.155 17.7187 17.4149C17.6227 17.2974 17.5212 17.18 17.4092 17.0626C16.0213 15.5466 13.8702 14.7513 11.8204 15.0235C9.27426 15.3598 7.03236 17.3615 6.37047 19.8436C5.95945 21.3916 6.31709 23.0356 6.07688 24.6103C5.87938 25.9127 4.76377 27.2472 3.58411 27.829H3.58944Z" fill="white"/>
<path d="M17.8989 0.0507812C17.7708 0.440445 17.9256 0.862135 18.091 1.23579C20.2155 5.97046 25.9057 9.17317 25.7082 14.8633C25.6174 17.4362 24.3363 20.4574 22.1852 21.984C22.0304 22.0961 21.8862 22.1922 21.7048 22.2456C21.2937 21.4769 21.251 20.356 20.9041 19.5126C20.4664 18.4504 19.8899 17.4095 19.0839 16.5875C18.3099 15.8028 17.3437 15.3491 16.5697 14.5804C14.947 12.9577 13.9222 10.7372 13.7887 8.44189C13.5966 5.17512 15.2299 1.92971 17.9042 0.061457L17.8989 0.0507812Z" fill="white"/>
<path d="M3.12454 11.474C3.12454 11.474 3.04981 10.0488 4.51239 10.1182C4.51239 10.1182 5.04617 11.6768 3.12454 11.474Z" fill="#240053" stroke="white" stroke-width="0.261407" stroke-miterlimit="10"/>
<path d="M2.63872 23.5587C3.97712 23.5587 5.0621 22.4737 5.0621 21.1353C5.0621 19.7969 3.97712 18.7119 2.63872 18.7119C1.30032 18.7119 0.215332 19.7969 0.215332 21.1353C0.215332 22.4737 1.30032 23.5587 2.63872 23.5587Z" fill="white"/>
<path d="M31.4377 23.5961L36.0816 11.1855H38.5691L43.213 23.5961H40.7843L39.6473 20.5855H35.0194L33.8824 23.5961H31.427H31.4377ZM35.7987 18.5731H38.8947L37.3307 13.8331L35.7987 18.5731Z" fill="white"/>
<path d="M44.457 23.5959V15.1888H46.6562V17.1584C46.8591 16.4378 47.1793 15.8987 47.617 15.5411C48.0494 15.1834 48.5245 15.002 49.0423 15.002C49.56 15.002 50.0244 15.1034 50.4248 15.3115L50.0458 17.2812C49.7095 17.1264 49.2878 17.0517 48.77 17.0517C47.3608 17.0517 46.6616 18.242 46.6616 20.6174V23.5959H44.4624H44.457Z" fill="white"/>
<path d="M51.4978 21.1991C51.2736 20.6493 51.1615 20.0461 51.1615 19.4003C51.1615 18.7544 51.2736 18.1512 51.4978 17.5907C51.722 17.0303 52.0209 16.5659 52.3999 16.1869C52.7789 15.8132 53.2219 15.5196 53.7237 15.3115C54.2308 15.1033 54.7592 14.9965 55.3143 14.9965C55.8695 14.9965 56.4139 15.114 56.8944 15.3435C57.3748 15.573 57.7271 15.8986 57.9566 16.3096V10.5981H60.1558V23.5905H57.9566V22.4482C57.7271 22.8592 57.3748 23.1848 56.889 23.4143C56.4086 23.6492 55.8802 23.7613 55.3143 23.7613C54.7485 23.7613 54.2308 23.6545 53.729 23.4464C53.2272 23.2382 52.7842 22.9499 52.4052 22.5763C52.0262 22.2026 51.722 21.7436 51.4978 21.1884V21.1991ZM53.4675 19.3682C53.4675 20.0461 53.681 20.5959 54.1027 21.023C54.5297 21.45 55.0528 21.6635 55.6773 21.6635C56.3019 21.6635 56.825 21.45 57.268 21.0283C57.711 20.6066 57.9246 20.0515 57.9246 19.3736C57.9246 18.6957 57.7004 18.1459 57.252 17.7349C56.8036 17.3238 56.2805 17.121 55.6773 17.121C55.0741 17.121 54.5243 17.3292 54.1027 17.7455C53.681 18.1619 53.4675 18.7063 53.4675 19.3789V19.3682Z" fill="white"/>
<path d="M62.2695 11.9219C62.2695 11.5536 62.4083 11.2387 62.6912 10.9825C62.9741 10.7263 63.3051 10.5981 63.6894 10.5981C64.0737 10.5981 64.3993 10.7263 64.6769 10.9825C64.9545 11.2387 65.0879 11.5483 65.0879 11.9219C65.0879 12.2956 64.9491 12.6105 64.6769 12.8667C64.4047 13.1229 64.0737 13.2511 63.6894 13.2511C63.3051 13.2511 62.9635 13.1229 62.6859 12.8667C62.4083 12.6105 62.2695 12.2956 62.2695 11.9219ZM62.5791 23.5958V15.1887H64.7783V23.5958H62.5791Z" fill="white"/>
<path d="M67.2542 23.5957V13.251H69.4534V23.5957H67.2542Z" fill="white"/>
<path d="M71.9291 23.5959V10.6035H74.1283V23.5959H71.9291Z" fill="white"/>
<path d="M76.0941 19.379C76.0941 18.7224 76.2116 18.1193 76.4518 17.5588C76.692 17.0036 77.0122 16.5393 77.4126 16.1709C77.8129 15.8026 78.272 15.5144 78.7897 15.3115C79.3075 15.1087 79.8466 15.002 80.4071 15.002C80.8715 15.002 81.3519 15.098 81.8483 15.2955C82.3447 15.493 82.7344 15.8026 83.0173 16.2243V15.1834H85.2165V23.5906H83.0173V22.5016C82.7718 22.902 82.3928 23.2116 81.8804 23.4251C81.3679 23.6386 80.8768 23.7454 80.4124 23.7454C79.6598 23.7454 78.9605 23.5692 78.3093 23.2222C77.6581 22.8753 77.1243 22.3575 76.7133 21.6796C76.3023 21.0017 76.0995 20.233 76.0995 19.3683L76.0941 19.379ZM78.4001 19.379C78.4001 20.0355 78.6296 20.5747 79.094 21.0017C79.5584 21.4287 80.0975 21.6422 80.7167 21.6422C81.3359 21.6422 81.8804 21.4394 82.3341 21.0284C82.7878 20.6174 83.012 20.0676 83.012 19.379C83.012 18.6904 82.7825 18.1406 82.3234 17.7296C81.8643 17.3186 81.3252 17.1157 80.7114 17.1157C80.0975 17.1157 79.5424 17.3293 79.0833 17.7509C78.6243 18.178 78.3947 18.7171 78.3947 19.379H78.4001Z" fill="white"/>
</g>
<defs>
<clipPath id="clip0_0_786">
<rect width="85" height="27.9704" fill="white" transform="translate(0.215332 0.0507812)"/>
</clipPath>
</defs>
</svg>
